<svg width="24" height="24" viewBox="0 0 24 24" fill="none" xmlns="http://www.w3.org/2000/svg">
<path d="M13.9475 5.07318C13.2466 5.77616 13.2466 6.91601 13.9475 7.619L15.2166 8.89191C15.4712 9.14728 15.7832 9.3099 16.1109 9.37978C16.4616 9.45456 16.7845 9.77059 16.6883 10.1163C16.2434 11.7154 15.3895 13.1703 14.2115 14.3365C13.0334 15.5028 11.5718 16.3401 9.97178 16.7653C9.683 16.842 9.42097 16.5757 9.37977 16.2796C9.32769 15.9054 9.15817 15.5445 8.87127 15.2568L7.60217 13.9838C6.90129 13.2808 5.76485 13.2808 5.06397 13.9838L2.52566 16.5297C1.82478 17.2327 1.82478 18.3726 2.52566 19.0755C3.0367 19.5881 3.52271 20.229 4.13983 20.6193C4.80193 21.0187 5.6668 20.9644 6.43948 20.99C7.71553 21.0323 9.70468 20.9469 10.9866 20.6062C13.2539 20.0036 15.3249 18.8171 16.9943 17.1645C18.6638 15.5119 19.8736 13.4504 20.5042 11.1844C20.9243 9.67415 21 8.36072 21 6.55509C21 5.65227 20.9873 4.76143 20.506 4.05708C20.4441 3.96664 20.3732 3.8806 20.2931 3.80026L19.024 2.52724C18.3231 1.82425 17.1866 1.82425 16.4858 2.52724L13.9475 5.07318Z" fill="white"/>
<path d="M16.6631 2.7041C17.2663 2.0991 18.2435 2.0991 18.8467 2.7041L20.1162 3.97656C20.1854 4.04594 20.2466 4.12044 20.2998 4.19824C20.7301 4.82815 20.75 5.63698 20.75 6.55469C20.75 8.35291 20.6746 9.63991 20.2637 11.1172C19.6448 13.3413 18.4568 15.3645 16.8184 16.9863C15.1801 18.6082 13.1477 19.7728 10.9229 20.3643C9.67635 20.6956 7.71588 20.7822 6.44824 20.7402C6.04427 20.7268 5.65827 20.7347 5.27344 20.6963C4.89624 20.6586 4.55695 20.5778 4.27148 20.4062C3.98932 20.2274 3.73085 19.9873 3.47363 19.7197C3.2301 19.4664 2.95417 19.1513 2.70312 18.8994C2.09952 18.294 2.09952 17.3115 2.70312 16.7061L5.24121 14.1602C5.84434 13.5554 6.82165 13.5554 7.4248 14.1602L8.69434 15.4336C8.94145 15.6815 9.08698 15.9922 9.13184 16.3145C9.16058 16.5203 9.26541 16.7153 9.41797 16.8496C9.57341 16.9865 9.79461 17.071 10.0361 17.0068C11.6783 16.5704 13.1787 15.7106 14.3877 14.5137C15.5964 13.317 16.4722 11.8242 16.9287 10.1836C17.0044 9.9117 16.9093 9.66267 16.7568 9.48438C16.6067 9.30885 16.3891 9.18397 16.1631 9.13574C15.8814 9.07569 15.613 8.93583 15.3936 8.71582L14.124 7.44238C13.5208 6.83707 13.5209 5.85535 14.124 5.25L16.6631 2.7041Z" stroke="white" stroke-opacity="0.3" stroke-width="0.5"/>
</svg>
